<?xml version="1.0" encoding="iso-8859-1"?>
<!-- Generator: Adobe Illustrator 19.0.0, SVG Export Plug-In . SVG Version: 6.00 Build 0)  -->
<svg version="1.1" id="Layer_1" xmlns="http://www.w3.org/2000/svg" xmlns:xlink="http://www.w3.org/1999/xlink" x="0px" y="0px"
	 viewBox="0 0 512 512" style="enable-background:new 0 0 512 512;" xml:space="preserve">
<path style="fill:#FAC917;" d="M289.006,512h-66.007c-18.811,0-36.485-7.329-49.784-20.621
	c-13.299-13.309-20.626-30.986-20.626-49.789V291.976h-31.434c-31.895,0-60.385-19.044-72.581-48.525
	c-12.214-29.42-5.535-63.03,17.044-85.601L200.451,23.02C215.291,8.169,235.021,0,256,0s40.709,8.169,55.549,23.02l134.845,134.84
	c22.564,22.556,29.251,56.161,17.024,85.619c-12.191,29.45-40.681,48.494-72.571,48.494h-31.439v149.614
	c0,18.806-7.319,36.48-20.616,49.779C325.491,504.671,307.809,512,289.006,512z M256,52.8c-6.871,0-13.34,2.68-18.204,7.555
	L102.95,195.2c-7.401,7.396-9.595,18.401-5.591,28.029c4.004,9.695,13.34,15.941,23.795,15.941h84.244V441.59
	c0,4.7,1.83,9.121,5.151,12.449c3.325,3.32,7.749,5.151,12.449,5.151h66.004c4.705,0,9.124-1.83,12.449-5.156
	s5.156-7.744,5.156-12.444V239.171h84.239c10.45,0,19.789-6.244,23.79-15.91c4.009-9.659,1.815-20.669-5.581-28.06L274.207,60.355
	C269.34,55.48,262.871,52.8,256,52.8z"/>
<g>
</g>
<g>
</g>
<g>
</g>
<g>
</g>
<g>
</g>
<g>
</g>
<g>
</g>
<g>
</g>
<g>
</g>
<g>
</g>
<g>
</g>
<g>
</g>
<g>
</g>
<g>
</g>
<g>
</g>
</svg>
